<?xml version="1.0" encoding="UTF-8"?>
<svg width="286px" height="234px" viewBox="0 0 286 234" version="1.1" xmlns="http://www.w3.org/2000/svg" xmlns:xlink="http://www.w3.org/1999/xlink">
    <title>NASA_logo</title>
    <g id="Page-1" stroke="none" stroke-width="1" fill="none" fill-rule="evenodd">
        <g id="NASA_logo" fill-rule="nonzero">
            <circle id="Oval" stroke="#FFFFFF" stroke-width="5" cx="133" cy="117" r="114.5"></circle>
            <g id="Group" transform="translate(0.000000, 7.000000)" fill="#FFFFFF">
                <ellipse id="Oval" cx="126.060582" cy="14.1781282" rx="1.30952381" ry="1.31487379"></ellipse>
                <ellipse id="Oval" cx="139.505026" cy="15.9312932" rx="1.30952381" ry="1.31487379"></ellipse>
                <ellipse id="Oval" cx="157.139947" cy="39.7743379" rx="1.30952381" ry="1.31487379"></ellipse>
                <ellipse id="Oval" cx="60.4097884" cy="162.495891" rx="1.30952381" ry="1.31487379"></ellipse>
                <ellipse id="Oval" cx="63.8145503" cy="173.014882" rx="1.30952381" ry="1.31487379"></ellipse>
                <ellipse id="Oval" cx="47.576455" cy="164.07374" rx="1" ry="1"></ellipse>
                <ellipse id="Oval" cx="100.830423" cy="184.737712" rx="1" ry="1"></ellipse>
                <ellipse id="Oval" cx="184.354762" cy="167.317095" rx="1" ry="1"></ellipse>
                <ellipse id="Oval" cx="208.627513" cy="140.844303" rx="1" ry="1"></ellipse>
                <ellipse id="Oval" cx="89.6558201" cy="47.4648885" rx="1" ry="1"></ellipse>
                <ellipse id="Oval" cx="116.370106" cy="27.7651573" rx="1" ry="1"></ellipse>
                <ellipse id="Oval" cx="113.468783" cy="25.8366757" rx="1" ry="1"></ellipse>
                <ellipse id="Oval" cx="110.849735" cy="23.9081942" rx="1" ry="1"></ellipse>
                <ellipse id="Oval" cx="93.8462963" cy="52.5519891" rx="1" ry="1"></ellipse>
                <ellipse id="Oval" cx="133.196032" cy="1.29236505" rx="1" ry="1"></ellipse>
                <ellipse id="Oval" cx="139.659259" cy="29.6936388" rx="1" ry="1"></ellipse>
                <ellipse id="Oval" cx="129.465344" cy="24.1477934" rx="1" ry="1"></ellipse>
                <ellipse id="Oval" cx="112.005026" cy="31.689325" rx="1" ry="1"></ellipse>
                <ellipse id="Oval" cx="189.005026" cy="193.331143" rx="1" ry="1"></ellipse>
                <ellipse id="Oval" cx="58.7510582" cy="169.157918" rx="1" ry="1"></ellipse>
                <ellipse id="Oval" cx="127.020899" cy="181.868365" rx="1" ry="1"></ellipse>
                <ellipse id="Oval" cx="79.0690476" cy="168.368994" rx="1" ry="1"></ellipse>
                <ellipse id="Oval" cx="87.560582" cy="182.286203" rx="1" ry="1"></ellipse>
                <ellipse id="Oval" cx="150.068519" cy="173.520377" rx="1" ry="1"></ellipse>
                <ellipse id="Oval" cx="184.529365" cy="153.993041" rx="1" ry="1"></ellipse>
                <ellipse id="Oval" cx="210.65582" cy="165.978846" rx="1" ry="1"></ellipse>
                <ellipse id="Oval" cx="219.560582" cy="171.700008" rx="1" ry="1"></ellipse>
                <ellipse id="Oval" cx="221.024339" cy="156.096839" rx="1" ry="1"></ellipse>
                <ellipse id="Oval" cx="91.1166667" cy="134.006959" rx="1" ry="1"></ellipse>
                <ellipse id="Oval" cx="91.4891534" cy="156.622788" rx="1.30952381" ry="1.31487379"></ellipse>
                <ellipse id="Oval" cx="99.3462963" cy="173.277856" rx="1.30952381" ry="1.31487379"></ellipse>
                <ellipse id="Oval" cx="193.457407" cy="155.921522" rx="1.30952381" ry="1.31487379"></ellipse>
                <ellipse id="Oval" cx="227.330423" cy="153.993041" rx="1.30952381" ry="1.31487379"></ellipse>
                <ellipse id="Oval" cx="210.568519" cy="146.805064" rx="1.30952381" ry="1.31487379"></ellipse>
                <ellipse id="Oval" cx="193.457407" cy="147.50633" rx="1.30952381" ry="1.31487379"></ellipse>
                <path d="M158.161376,13.3541406 L161.417725,13.0414928 L158.167196,12.8574105 C158.065344,12.2262711 157.561905,11.7324629 156.927513,11.6506485 L156.616138,8.39560544 L156.429894,11.676946 C155.842063,11.8084334 155.391005,12.3022416 155.318254,12.9158493 L151.989153,13.2197313 L155.341534,13.4008917 C155.463757,13.9648264 155.917725,14.4060396 156.488095,14.5112295 L156.790741,17.8656186 L156.968254,14.5170734 C157.570635,14.4148054 158.047884,13.9502167 158.161376,13.3541406 Z" id="Path"></path>
                <path d="M103.202116,49.7556909 L106.458466,49.4430431 L103.207937,49.2589608 C103.108995,48.6278214 102.602646,48.1340132 101.968254,48.0521988 L101.656878,44.7971557 L101.473545,48.0784963 C100.882804,48.2099837 100.431746,48.7037918 100.358995,49.3173996 L97.0298942,49.6212816 L100.382275,49.8024419 C100.504497,50.3663767 100.958466,50.8075899 101.528836,50.9127798 L101.831481,54.2671689 L102.011905,50.9186237 C102.614286,50.8192777 103.091534,50.351767 103.202116,49.7556909 Z" id="Path"></path>
                <path d="M224.94418,145.998608 L228.200529,145.68596 L224.95,145.501878 C224.851058,144.870739 224.344709,144.37693 223.710317,144.295116 L223.398942,141.040073 L223.215608,144.321414 C222.627778,144.452901 222.17672,144.946709 222.103968,145.560317 L218.774868,145.864199 L222.127249,146.045359 C222.249471,146.609294 222.703439,147.050507 223.27381,147.155697 L223.576455,150.510086 L223.756878,147.161541 C224.353439,147.062195 224.830688,146.597606 224.94418,145.998608 Z" id="Path"></path>
                <path d="M92.2021164,196.320289 L95.4584656,196.007641 L92.2079365,195.823559 C92.1060847,195.192419 91.6026455,194.698611 90.968254,194.616797 L90.6568783,191.364676 L90.473545,194.643094 C89.8828042,194.774582 89.431746,195.26839 89.3589947,195.881998 L86.0298942,196.18588 L89.3822751,196.36704 C89.5044974,196.930975 89.9584656,197.37511 90.528836,197.477378 L90.8314815,200.831767 L91.0119048,197.483222 C91.6113757,197.383876 92.0915344,196.916365 92.2021164,196.320289 Z" id="Path"></path>
                <path d="M214.598942,171.775978 L217.855291,171.46333 L214.604762,171.279248 C214.50582,170.648109 213.999471,170.154301 213.365079,170.072486 L213.053704,166.817443 L212.87037,170.095862 C212.28254,170.227349 211.831481,170.721157 211.75873,171.334765 L208.42963,171.638647 L211.782011,171.819807 C211.904233,172.383742 212.358201,172.824955 212.928571,172.930145 L213.231217,176.284534 L213.41164,172.935989 C214.008201,172.839565 214.48836,172.372054 214.598942,171.775978 Z" id="Path"></path>
                <path d="M160.658201,80.8422291 C147.076984,86.1426315 133.830423,90.8732551 122.65291,94.3854291 C99.9399471,101.526655 37.7957672,120.858221 0.256084656,145.227216 L3.3989418,146.454431 C26.2719577,133.48101 41.139418,129.404901 55.4306878,124.890501 C70.9703704,119.981639 121.206614,108.176994 143.954497,101.748722 C151.639947,99.5777196 160.640741,96.7346703 170.174074,93.2750913 C167.956614,90.1690672 165.616931,87.0542773 163.155026,83.9453313 C162.331481,82.8963542 161.496296,81.8619868 160.658201,80.8422291 Z M177.251323,103.805769 C173.962963,106.035211 171.207143,107.814673 169.277778,108.936699 C158.103175,115.42341 103.624074,152.765825 91.2301587,161.356334 C78.8362434,169.946843 44.4365079,202.555713 34.3095238,212.022804 L33.9603175,215.876845 C66.6111111,186.423672 76.8544974,179.159725 89.8333333,169.245577 C105.896825,156.973421 139.12672,134.269934 150.420635,126.994299 C161.216931,120.040078 170.953968,113.643947 179.692857,107.791298 C179.550265,107.551699 179.407672,107.312099 179.265079,107.069578 C178.607407,105.985538 177.935185,104.898576 177.251323,103.805769 Z M228.290741,49.6797204 C212.384392,59.0416217 187.314286,70.3407705 162.992063,79.9276614 C163.574074,80.6435371 164.153175,81.3652567 164.729365,82.0928202 C167.447354,85.5290237 170.011111,88.9886027 172.423545,92.4511037 C191.542593,85.3800047 212.521164,75.8895379 229.166667,64.4033849 C221.236772,71.9478384 195.020106,91.6212722 179.035185,102.58732 C179.85873,103.934335 180.656085,105.28135 181.427249,106.622521 C205.644709,90.3502276 221.941005,78.3731883 231.436508,70.364146 C244.531746,59.3192062 274.388889,34.599579 285.738095,1.46475961 C265.830423,26.8885748 242.293915,41.4369227 228.290741,49.6797204 Z" id="Shape"></path>
                <path d="M117.926984,137.977878 C115.351587,134.722835 111.789683,130.363298 109.115344,126.982611 C105.538889,122.462367 102.230159,117.895372 99.1978836,113.334221 C98.2084656,113.582586 97.2219577,113.830951 96.2354497,114.079317 C99.8962963,119.815088 103.96164,125.542094 108.390741,131.140534 C111.62672,135.231253 114.568783,138.524281 116.07619,140.572562 C116.381746,140.987478 116.987037,141.904968 117.804762,143.126339 C118.747619,142.483512 119.699206,141.834841 120.659524,141.180326 C119.731217,140.166412 118.81455,139.099904 117.926984,137.977878 Z M136.725926,155.112144 C134.610317,153.101849 129.479894,149.744537 124.139947,144.70711 C122.961376,145.51941 121.771164,146.343397 120.578042,147.173229 C124.026455,152.052871 128.72328,158.045774 132.401587,159.793095 C137.942328,162.428687 139.435185,157.689297 136.725926,155.112144 Z M164.729365,82.0928202 C134.19709,43.5056575 96.8989418,22.3069701 80.8179894,35.1372163 C68.3280423,45.1010377 73.4555556,74.2211091 90.6714286,104.810917 C91.5619048,104.504113 92.4436508,104.203153 93.3166667,103.905115 C75.9407407,74.1013095 71.1857143,46.4042237 82.9656085,37.0043371 C97.7690476,25.1938485 133.513228,46.4743503 163.160847,83.9424093 C169.298148,91.6972427 174.693386,99.4812955 179.262169,107.069578 C196.757407,136.142899 202.126455,162.43453 190.038095,173.166823 C186.339418,176.451085 175.036772,177.739661 160.230423,171.048415 C160.02381,171.308468 160.355556,172.012656 160.61455,172.18505 C173.395503,177.345199 185.638095,179.311666 191.819048,174.38235 C206.671958,162.530955 195.26164,120.679983 164.729365,82.0928202 Z" id="Shape"></path>
                <path d="M33.7828042,86.6715029 L53.3383598,86.6715029 L69.7510582,114.634485 C69.7510582,114.634485 69.7510582,94.3854291 69.7510582,92.8075806 C69.7510582,90.3531495 66.6518519,87.1536233 65.560582,86.6715029 C66.8701058,86.6715029 78.3066138,86.6715029 79.092328,86.6715029 C78.262963,86.8906485 75.6002646,90.1340039 75.6002646,92.8075806 C75.6002646,94.1224544 75.6002646,123.487969 75.6002646,124.890501 C75.6002646,126.862812 78.4375661,129.580217 79.7907407,130.632117 L60.9335979,130.632117 L44.2589947,102.537647 C44.2589947,102.537647 44.2589947,123.487969 44.2589947,124.627526 C44.2589947,126.818983 46.3978836,128.922781 48.6240741,130.719775 L34.2193122,130.719775 C36.2708995,129.843192 38.2351852,127.081957 38.4097884,124.890501 C38.5843915,122.699045 38.4097884,94.4292583 38.4097884,93.2020427 C38.4097884,90.528466 35.8343915,88.3370097 33.7828042,86.6715029 Z" id="Path"></path>
                <path d="M212.663757,130.632117 L238.67963,130.632117 C237.239153,130.281483 235.624074,128.572148 234.751058,126.293033 C233.878042,124.013918 220.084392,86.6715029 220.084392,86.6715029 L210.193122,86.6715029 C207.387831,88.6993305 204.381746,90.8381918 201.171958,93.0910089 C201.163228,93.1728233 201.154497,93.2546377 201.139947,93.3335301 C200.709259,95.9632777 192.968519,124.113264 192.49709,125.504109 C191.842328,127.43259 188.481217,129.580217 187.128042,130.719775 L201.139947,130.719775 C199.743122,129.141926 198.608201,127.607907 198.870106,125.854742 C199.132011,124.101577 199.917725,120.595247 199.917725,120.595247 L214.409788,120.595247 C215.06455,122.348412 215.553439,123.923338 215.806614,125.41645 C216.112169,127.213445 214.278836,129.229584 212.663757,130.632117 Z M201.227249,114.985118 L206.116138,98.9436583 L212.576455,114.985118 L201.227249,114.985118 Z M199.024339,88.272727 C199.743122,87.7409336 200.464815,87.2062183 201.183598,86.6715029 L197.385979,86.6715029 C197.764286,87.0221359 198.389947,87.5743829 199.024339,88.272727 Z" id="Shape"></path>
                <path d="M99.5208995,125.854742 C99.7828042,124.101577 100.568519,120.595247 100.568519,120.595247 L115.060582,120.595247 C115.715344,122.348412 116.204233,123.923338 116.457407,125.41645 C116.762963,127.213445 114.92963,129.229584 113.31455,130.632117 L136.219577,130.632117 C136.696825,130.310703 137.171164,129.989289 137.645503,129.670798 C136.757937,128.881873 135.940212,127.698487 135.401852,126.293033 C134.528836,124.013918 120.735185,86.6715029 120.735185,86.6715029 L98.0367725,86.6715029 C99.1280423,87.6795728 102.270899,90.3969786 101.790741,93.3335301 C101.362963,95.9632777 93.6193122,124.113264 93.1478836,125.504109 C92.4931217,127.43259 89.1320106,129.580217 87.778836,130.719775 L101.790741,130.719775 C100.393915,129.141926 99.2589947,127.607907 99.5208995,125.854742 Z M106.766931,98.9436583 L113.227249,114.985118 L101.878042,114.985118 L106.766931,98.9436583 Z" id="Shape"></path>
                <path d="M178.642328,108.492564 C174.37037,111.350223 169.862698,114.333525 165.113492,117.448315 C167.243651,118.485605 168.940212,119.788791 169.103175,121.471829 C169.40582,124.63337 163.079365,126.161546 157.361111,125.504109 C156.21746,125.372621 155.09418,125.071661 154.02328,124.668433 C152.835979,125.436904 151.637037,126.211219 150.420635,126.994299 C149.183862,127.791989 147.682275,128.773762 145.968254,129.907475 L145.968254,134.44525 C147.103175,132.209965 149.58545,130.208435 151.511905,130.106167 C152.34127,130.062338 155.222222,132.735915 167.095238,132.078478 C172.857143,131.759986 183.988095,125.591767 183.813492,118.491449 C183.70873,114.29554 181.52619,111.022965 178.642328,108.492564 Z M145.965344,119.455689 L145.965344,124.078201 C147.015873,123.374013 148.051852,122.681513 149.06746,122.006544 C147.469841,120.890363 146.337831,119.84723 145.965344,119.455689 Z M174.582804,105.591076 C173.476984,104.933639 172.356614,104.358016 171.282804,103.849598 C165.695503,101.219851 159.846296,100.73773 158.624074,97.1875713 C157.762698,94.6834672 160.195503,92.3663674 166.132011,92.4540256 C172.068519,92.5416839 177.568519,96.0918431 179.052646,97.3628878 L179.052646,86.0549732 C178.616138,86.4932645 176.701323,88.6993305 174.949471,88.3340878 C171.58836,87.6328217 165.870106,86.718254 159.322487,86.7562392 C151.81455,86.8000683 145.354233,92.6264202 145.135979,99.9926353 C144.830423,110.29248 153.036772,113.097544 157.663757,114.719222 C158.141005,114.885772 158.685185,115.064011 159.275926,115.253937 C163.713757,112.355371 167.22328,110.123007 169.277778,108.933777 C170.657143,108.136087 172.464286,106.990686 174.582804,105.591076 Z" id="Shape"></path>
            </g>
        </g>
    </g>
</svg>